<svg viewBox="0 0 645.03 336.36" xmlns="http://www.w3.org/2000/svg"><path d="m151.39 160.94c11.12 11.12 22.38 22.12 33.28 33.45 2.98 3.1 6.11 4.27 10.17 4.25 14.22-.07 28.43.03 42.65-.07 3.1-.02 4.29.24 4.23 4.17-.21 13.01.08 26.04.72 39.04.36 7.26 3.62 13.73 8.73 18.88 20.85 21.04 41.85 41.93 62.83 62.85 1.97 1.97 3.88 4.78 7.17 3.5 3.14-1.22 2.86-4.01 2.9-7.11.31-27.74.25-55.47.06-83.2-.14-21.73.66-43.47.66-65.21 0-24.24-.62-48.49-.65-72.73-.03-26.28.38-52.56.47-78.83.02-6.11-.81-11.99-7.15-15.39-1.44-.77-2.53-1.51-4.33-1.5-27.68.09-55.36.06-83.03.05-34.99-.01-69.98-.05-104.97-.05-39.44 0-78.88.04-118.32 0-2.59 0-5.02.28-6.29 2.66-1.4 2.62.23 4.59 2.07 6.43 21.83 21.8 43.43 43.82 65.57 65.3 5.7 5.53 13.48 7.78 21.8 7.76 47.78-.11 95.57-.03 143.35-.08 5.45 0 9.61.3 8.51 7.92-.84 5.76-.07 11.76.1 17.65.13 4.27-1.54 5.69-6.02 5.65-19.99-.21-39.98.02-59.97.06-18.15.03-36.29.01-54.44.03-3.04 0-6.46-.43-7.88 3.14-1.35 3.4 1.59 5.17 3.54 7.14 11.38 11.44 22.81 22.84 34.22 34.25z" fill="#6d3c96"/><path d="m493.63 160.94c-11.12 11.12-22.38 22.12-33.28 33.45-2.98 3.1-6.11 4.27-10.17 4.25-14.22-.07-28.43.03-42.65-.07-3.1-.02-4.29.24-4.23 4.17.21 13.01-.08 26.04-.72 39.04-.36 7.26-3.62 13.73-8.73 18.88-20.85 21.04-41.85 41.93-62.83 62.85-1.97 1.97-3.88 4.78-7.17 3.5-3.14-1.22-2.86-4.01-2.9-7.11-.31-27.74-.25-55.47-.06-83.2.14-21.73-.66-43.47-.66-65.21 0-24.24.62-48.49.65-72.73.03-26.28-.38-52.56-.47-78.83-.02-6.11.81-11.99 7.15-15.39 1.44-.77 2.53-1.51 4.33-1.5 27.68.09 55.36.06 83.03.05 34.99-.01 69.98-.05 104.97-.05 39.44 0 78.88.04 118.32 0 2.59 0 5.02.28 6.29 2.66 1.4 2.62-.23 4.59-2.07 6.43-21.83 21.8-43.43 43.82-65.57 65.3-5.7 5.53-13.48 7.78-21.8 7.76-47.78-.11-95.57-.03-143.35-.08-5.45 0-9.61.3-8.51 7.92.84 5.76.07 11.76-.1 17.65-.13 4.27 1.54 5.69 6.02 5.65 19.99-.21 39.98.02 59.97.06 18.15.03 36.29.01 54.44.03 3.04 0 6.46-.43 7.88 3.14 1.35 3.4-1.59 5.17-3.54 7.14-11.38 11.44-22.81 22.84-34.22 34.25z" fill="#6d3c96"/><g fill="#fff"><path d="m320.32 336.25c-10.23 0-20.46-.21-30.68.11-5.61.17-9.76-3.22-10.56-11.3-1.76-17.74-3.73-35.45-5.69-53.16-1.95-17.6-4.5-35.13-5.84-52.8-1.63-21.45.44-42.3 8.88-62.07 10.53-24.66 20.46-49.69 29.09-75.39 7.06-21.04 12.8-42.58 17.45-64.53 1.75-8.25 5.21-14.61 12.82-16.69 6.3-1.72 10.96 1.87 11.59 9.41.14 1.74.92 2.1 1.96 2.62 10.81 5.44 21.61 10.92 32.43 16.36 6.49 3.26 8.14 7.98 5.4 15.68-2.97 8.35-5.95 16.69-8.92 25.04-2.15 6.02-4.93 8.08-10.4 7.37-1.47-.19-2.06.37-2.35 1.86-2.95 15.06-6.93 29.83-9.29 45.04-1.21 7.82.2 15.47 3.44 22.45 5.4 11.63 9.96 23.6 12.15 36.69 2.1 12.52 2.61 25.06 1.08 37.74-1.33 11.01-2.3 22.08-3.51 33.11-1.39 12.74-2.91 25.46-4.31 38.21-1.21 11.02-2.44 22.03-3.42 33.08-.7 7.95-5.15 11.43-10.36 11.26-10.31-.33-20.64-.09-30.96-.08z"/><path d="m311.3 2.24c-2.6 2.37-3.24 5.79-3.99 9.14-6.88 30.82-15.89 60.77-26.68 89.99-.07.19-.2.35-.6 1.01-.98-4.39-1.9-8.4-2.78-12.43-.78-3.58-1.55-7.18-2.28-10.77-.36-1.76-1.02-2.39-2.74-2.13-4.73.71-7.9-1.44-9.78-6.58-3.34-9.11-6.62-18.25-9.78-27.45-2.06-6.01-.19-10.97 4.91-13.57 11.91-6.05 23.82-12.09 35.76-18.06 1.63-.81 2.66-1.59 2.95-4.05.49-4.15 4.24-7.36 7.89-7.3 2.42.04 4.77.61 7.11 2.21z"/></g></svg>